<?xml version="1.0" encoding="UTF-8"?><svg id="Layer_1" xmlns="http://www.w3.org/2000/svg" viewBox="0 0 85.42 36.7"><path d="M2.27,29.41c2.01-1.29,5.75-3.25,10.47-3.26.93,0,3.04-.01,5.58.77,2.23.69,2.68,1.33,5.55,2.23,1.82.57,3.17.99,4.89.89,2-.11,3.4-.84,4.39-1.31,1.3-.62,8.17-3.88,14.78-3.11,2.18.25,4.28.94,5.54,1.34,3.71,1.2,4.17,2,6.39,2.16,1.94.15,3.44-.32,6.23-1.18,2.75-.85,3.4-1.47,5.74-1.84.61-.1,2.24-.34,4.13-.13,4.78.53,8.33,3.65,8.16,3.97-.14.26-2.69-1.54-7.18-2-.92-.09-2.79-.27-5.15.13-2.54.43-3,1.09-7.05,2.26-2.26.66-3.4.98-4.59.98-2.08,0-2.85-.66-6.23-1.84-3.33-1.16-5.22-1.81-7.81-1.92-2.31-.1-4.34.27-5.58.57-.44.11-.86.23-.99.27-1.08.31-2.54.8-4.21,1.57-1.15.53-1.23.65-2.4,1.15-.57.24-1.38.57-2.37.75-1.04.19-1.85.17-2.31.16-5.15-.13-8.22-3.46-14.17-3.83-.86-.05-2.81-.11-5.13.56-1.95.57-3.68,1.51-3.6,1.75.08.23,2.56-.98,6.18-.88,1.5.04,2.69.29,3.21.42,1.03.24,1.77.53,3.33,1.19,3.73,1.57,3.54,1.64,4.94,2.15,1.67.6,3.18,1.15,5.17,1.2,1.79.04,3.1-.33,4.6-.78,3.65-1.09,3.91-2.12,7.47-3.27,1.49-.48,3.2-1.02,5.47-1,2.48.02,4.39.69,5.94,1.24,3.09,1.08,3.53,1.66,6.06,2.4,1.96.57,3.58.25,3.98.22,2.75-.22,3.55-1.06,7.18-2.16,2.45-.74,4.43-1.34,6.9-1.26,2.61.08,4.69.89,6.01,1.53" fill="none" stroke="#231f20" stroke-linecap="round" stroke-miterlimit="10" stroke-width=".6"/><path d="M13.31,23.89C18.25,11.21,30.58,2.88,44.12,3.04c13.31.16,25.28,8.49,30.09,20.98" fill="none" stroke="#231f20" stroke-linecap="round" stroke-miterlimit="10" stroke-width=".75"/></svg>